<svg width="27" height="18" viewBox="0 0 27 18" fill="none" xmlns="http://www.w3.org/2000/svg">
<path d="M26.9049 1.09572C26.5104 2.75202 25.8324 6.05301 25.1843 9.29532L25.0941 9.74718C24.9142 10.6495 24.7378 11.541 24.5717 12.3848L24.4491 13.0081C24.0076 15.2564 23.6567 17.0736 23.5383 17.6896C23.4413 18.1919 22.902 17.9791 22.7612 17.7826C22.1355 16.9083 21.4306 16.8946 21.5098 16.3129C21.6752 15.0918 22.0221 13.0932 22.3956 11.062L22.479 10.6104C22.9671 7.97639 23.4805 5.38026 23.6817 4.44428C21.8041 8.33226 19.8584 13.1922 18.8595 15.9478C18.6473 16.533 18.2617 16.4901 18.0214 16.0619C17.6834 15.4606 17.0277 15.1535 16.9195 14.4429C16.5762 12.1831 17.3115 7.87614 17.414 5.15118C16.3923 8.12766 14.6769 13.9067 13.9256 16.5177C13.6149 17.5981 12.5836 17.4217 12.8577 16.3688C13.9997 11.987 16.4588 4.23733 17.5239 1.45039C17.7741 0.795656 18.4296 0.818159 18.974 0.546939C19.9541 0.0586554 20.4405 0.123657 20.4511 0.616736C20.465 1.25856 20.371 2.10933 20.3039 2.72717C19.9401 6.07854 19.3314 8.81729 19.2852 12.2589C20.8869 8.06805 22.2307 5.15546 23.9598 1.56741C24.3377 0.782698 24.6213 0.637806 24.9082 0.557949L24.9866 0.53735C25.0914 0.510883 25.1979 0.486107 25.3107 0.435382C27.0688 -0.355183 27.1347 0.130445 26.9049 1.09572ZM10.8634 0.554561C11.4542 0.452374 12.4148 -0.0724316 12.7469 0.00843257C13.0579 0.0840583 13.0326 0.454809 12.8425 0.961095C12.2817 2.45494 11.5039 4.41752 10.6147 6.73167C11.1737 6.66719 11.4769 6.64535 11.4769 6.64535C12.2796 6.54515 12.429 6.95073 12.2031 7.38249C12.1376 7.5076 12.0673 7.55687 11.9681 7.62332L11.9161 7.65841C11.7429 7.77679 11.4875 7.97711 11.0551 8.62858C10.632 9.2662 9.94109 9.43457 9.55737 9.51957C8.63296 11.9929 7.64241 14.7518 6.67981 17.6924C6.53972 18.1205 6.13051 18.0267 6.0075 17.8527C5.55544 17.2147 5.22209 17.1936 4.87166 16.6776C4.82954 16.5941 4.74711 16.4805 4.79668 16.2756C5.05432 15.2113 5.73854 13.0243 6.77925 10.1451C5.4682 10.4322 4.04975 10.7409 3.46417 10.8785C2.7614 12.7558 2.07602 14.6389 1.4267 16.4992C1.02385 17.6531 -0.0246741 17.43 0.343279 16.3394C0.929376 14.602 1.57636 12.7976 2.2251 11.0478C1.49883 10.9694 1.25316 10.4511 0.847244 10.018C0.690499 9.8507 0.348755 9.87423 0.181424 9.63968C-0.119583 9.21832 -0.089577 9.03113 0.605519 8.82838C1.56278 8.54912 2.47712 8.30468 3.34071 8.09072C4.51532 5.02703 5.57683 2.39894 6.14271 0.996584C6.57892 -0.0840153 7.70322 0.0166222 7.27613 1.08261C6.40816 3.24905 5.51821 5.49967 4.63986 7.78187C5.8682 7.50283 6.96753 7.2896 7.90676 7.12743C8.64128 5.22056 9.48816 3.12783 10.4343 0.932173C10.4959 0.789259 10.6758 0.587025 10.8634 0.554561ZM10.5333 10.5869C11.1924 9.79647 12.7214 10.4981 11.948 11.7149C11.7617 12.0079 11.5439 12.2847 11.3167 12.5653C11.3919 12.8075 11.4732 13.0642 11.5546 13.3165C11.6268 13.2464 11.6973 13.1795 11.7654 13.1199C12.2474 12.6978 12.7078 13.1165 12.2312 13.8302C12.1287 13.9837 12.0129 14.1488 11.8859 14.3114C11.9462 14.485 11.9999 14.6343 12.0426 14.745C12.289 15.3835 11.6419 15.5437 11.4334 15.0148C11.4151 14.9686 11.3961 14.9191 11.3766 14.8676C10.9833 15.2197 10.5284 15.4414 10.0424 15.2887C9.24265 15.0373 9.03918 13.8994 9.78582 13.0228C10.0854 12.6711 10.3108 12.4271 10.4992 12.2321C10.4424 12.0444 10.3964 11.8871 10.3664 11.777C10.2694 11.422 10.1819 11.0084 10.5333 10.5869ZM10.8046 13.2049C10.7369 13.2927 10.6696 13.3816 10.6036 13.4733C10.2104 14.019 10.4432 14.2132 10.7354 14.0325C10.8278 13.9755 10.9197 13.906 11.0104 13.8297C10.9409 13.6228 10.8713 13.4114 10.8046 13.2049ZM11.2587 11.4454C11.7455 10.8898 10.7829 10.6573 11.0046 11.5071C11.017 11.555 11.0325 11.6113 11.0499 11.6734C11.1175 11.6025 11.186 11.5283 11.2587 11.4454Z" fill="#E50010"/>
</svg>
