<svg width="24" height="24" viewBox="0 0 24 24" fill="none" xmlns="http://www.w3.org/2000/svg">
<path fill-rule="evenodd" clip-rule="evenodd" d="M11.75 20.9559V3.04736L6.16593 9.25033L2 9.25172V14.7515H6.16598L11.75 20.9559ZM6.83407 10.7501L10.25 6.95557V17.047L6.83402 13.2515H3.5V10.7512L6.83407 10.7501Z" fill="#222222"/>
<path d="M20.8116 7.82332C20.1924 6.5174 19.2901 5.36579 18.1702 4.45215L17.222 5.61441C18.1692 6.38724 18.9325 7.36135 19.4563 8.46598C19.98 9.57062 20.2512 10.7781 20.2501 12.0006V12.0022C20.2515 13.1651 20.0063 14.3151 19.5308 15.3763C19.0553 16.4376 18.3603 17.386 17.4915 18.159L18.4886 19.2796C19.5158 18.3656 20.3375 17.2443 20.8997 15.9896C21.4618 14.7351 21.7516 13.3757 21.7501 12.0011C21.7513 10.5561 21.4307 9.12897 20.8116 7.82332Z" fill="#222222"/>
<path d="M16.7501 12.0009C16.7499 10.4669 16.0222 9.10217 14.8942 8.235L13.98 9.42417C14.7541 10.0194 15.2501 10.9528 15.2501 12.002C15.2505 12.4993 15.1366 12.9901 14.917 13.4364C14.6975 13.8827 14.3782 14.2725 13.9839 14.5757L14.8983 15.7648C15.4749 15.3214 15.9418 14.7513 16.263 14.0986C16.584 13.4459 16.7507 12.7282 16.7501 12.0009Z" fill="#222222"/>
</svg>
